<svg width="141" height="45" viewBox="0 0 141 45" fill="none" xmlns="http://www.w3.org/2000/svg">
<path d="M20.1273 44.3884C31.2433 44.3884 40.2546 35.3771 40.2546 24.2611C40.2546 13.1451 31.2433 4.13379 20.1273 4.13379C9.01131 4.13379 0 13.1451 0 24.2611C0 35.3771 9.01131 44.3884 20.1273 44.3884Z" fill="#FAFBFF"/>
<path fill-rule="evenodd" clip-rule="evenodd" d="M12.5114 30.4629L33.9443 18.4953C31.6596 13.0555 26.3286 9.35645 20.1272 9.35645C11.8587 9.35645 5.11328 15.993 5.11328 24.2615C5.11328 32.6389 11.8587 39.2754 20.1272 39.2754C28.0693 39.2754 34.5971 33.074 35.1411 25.2407H29.9188C29.4837 30.2453 25.2406 34.162 20.1272 34.162C17.0809 34.162 14.2522 32.7477 12.5114 30.4629ZM20.1272 14.4699C22.7383 14.4699 25.023 15.449 26.7637 17.081L12.4026 25.0231V30.4629C11.0971 28.7222 10.3355 26.6551 10.3355 24.2615C10.3355 18.9305 14.6874 14.4699 20.1272 14.4699Z" fill="#FF7F00"/>
<path d="M77.028 42.6477V25.2403C77.028 15.9926 70.7178 10.0088 60.8173 10.0088C50.5905 10.0088 44.2803 17.1893 44.2803 26.3282C44.2803 35.6847 50.8081 43.3005 60.0557 43.3005C64.0812 43.3005 66.3659 41.9949 68.7594 40.2542V33.2912C66.6923 35.9023 63.9724 37.7518 60.5997 37.7518C54.5071 37.7518 50.1553 32.7472 50.1553 26.7634C50.1553 20.7796 54.2895 15.5574 60.7085 15.5574C66.0395 15.5574 71.153 18.7125 71.153 24.6963V42.6477H77.028ZM103.901 37.0991H87.3636L102.704 18.3861C103.357 17.5157 103.683 16.319 103.683 14.9046C103.683 12.2935 101.507 10.6616 97.4817 10.6616H81.1622V16.319H97.1553L84.0997 32.312C81.9238 34.8143 80.8358 36.4463 80.8358 38.5134C80.8358 41.2333 82.6854 42.6477 85.6229 42.6477H103.901V37.0991ZM130.556 37.0991H114.019L129.25 18.3861C130.012 17.5157 130.229 16.319 130.229 14.9046C130.229 12.2935 128.162 10.6616 124.137 10.6616H107.817V16.319H123.702L110.646 32.312C108.47 34.8143 107.491 36.4463 107.491 38.5134C107.491 41.2333 109.34 42.6477 112.278 42.6477H130.556V37.0991ZM140.347 42.6477V10.6616H134.472V42.6477H140.347Z" fill="#FAFBFF"/>
<path d="M133.93 3.48148C133.93 5.33102 135.235 7.07176 137.411 7.07176C139.696 7.07176 141.001 5.33102 141.001 3.48148C141.001 1.74074 139.696 0 137.411 0C135.235 0 133.93 1.74074 133.93 3.48148Z" fill="#F62424"/>
</svg>
