<svg width="30" height="31" viewBox="0 0 30 31" fill="none" xmlns="http://www.w3.org/2000/svg">
<g clip-path="url(#clip0_89_12782)">
<path d="M30 15.9604C30 7.6242 23.2837 0.866699 15 0.866699C6.7125 0.868574 -0.00375366 7.6242 -0.00375366 15.9623C-0.00375366 23.4942 5.4825 29.7379 12.6525 30.8704V20.3236H8.84625V15.9623H12.6562V12.6342C12.6562 8.85232 14.8969 6.76357 18.3225 6.76357C19.965 6.76357 21.6806 7.05795 21.6806 7.05795V10.7704H19.7887C17.9269 10.7704 17.3456 11.9348 17.3456 13.1292V15.9604H21.5044L20.8406 20.3217H17.3437V30.8686C24.5137 29.7361 30 23.4923 30 15.9604Z" fill="white"/>
</g>
<defs>
<clipPath id="clip0_89_12782">
<rect width="30" height="30" fill="white" transform="translate(0 0.868652)"/>
</clipPath>
</defs>
</svg>
