<svg width="30" height="31" viewBox="0 0 30 31" fill="none" xmlns="http://www.w3.org/2000/svg">
<g clip-path="url(#clip0_89_12780)">
<path d="M15 0.868652C10.9294 0.868652 10.4175 0.887402 8.81812 0.958652C7.21875 1.03365 6.12937 1.2849 5.175 1.65615C4.17393 2.03269 3.26717 2.62333 2.51813 3.38678C1.75514 4.13621 1.16458 5.04285 0.7875 6.04365C0.41625 6.99615 0.163125 8.0874 0.09 9.68115C0.01875 11.2843 0 11.7943 0 15.8705C0 19.943 0.01875 20.453 0.09 22.0524C0.165 23.6499 0.41625 24.7393 0.7875 25.6937C1.17188 26.6799 1.68375 27.5162 2.51813 28.3505C3.35063 29.1849 4.18687 29.6987 5.17313 30.0812C6.12937 30.4524 7.21688 30.7055 8.81437 30.7787C10.4156 30.8499 10.9256 30.8687 15 30.8687C19.0744 30.8687 19.5825 30.8499 21.1838 30.7787C22.7794 30.7037 23.8725 30.4524 24.8269 30.0812C25.8273 29.7044 26.7334 29.1138 27.4819 28.3505C28.3162 27.5162 28.8281 26.6799 29.2125 25.6937C29.5819 24.7393 29.835 23.6499 29.91 22.0524C29.9812 20.453 30 19.943 30 15.8687C30 11.7943 29.9812 11.2843 29.91 9.68303C29.835 8.0874 29.5819 6.99615 29.2125 6.04365C28.8355 5.04282 28.2449 4.13617 27.4819 3.38678C26.7331 2.62304 25.8262 2.03236 24.825 1.65615C23.8687 1.2849 22.7775 1.03178 21.1819 0.958652C19.5806 0.887402 19.0725 0.868652 14.9963 0.868652H15.0019H15ZM13.6556 3.5724H15.0019C19.0069 3.5724 19.4812 3.58553 21.0619 3.65865C22.5244 3.72428 23.3194 3.9699 23.8481 4.17428C24.5475 4.44615 25.0481 4.7724 25.5731 5.2974C26.0981 5.8224 26.4225 6.32115 26.6944 7.0224C26.9006 7.54928 27.1444 8.34428 27.21 9.80678C27.2831 11.3874 27.2981 11.8618 27.2981 15.8649C27.2981 19.868 27.2831 20.3443 27.21 21.9249C27.1444 23.3874 26.8988 24.1805 26.6944 24.7093C26.4539 25.3606 26.07 25.9495 25.5712 26.4324C25.0462 26.9574 24.5475 27.2818 23.8463 27.5537C23.3213 27.7599 22.5262 28.0037 21.0619 28.0712C19.4812 28.1424 19.0069 28.1593 15.0019 28.1593C10.9969 28.1593 10.5206 28.1424 8.94 28.0712C7.4775 28.0037 6.68437 27.7599 6.15562 27.5537C5.50406 27.3135 4.91461 26.9304 4.43062 26.4324C3.93141 25.9487 3.54698 25.3593 3.30562 24.7074C3.10125 24.1805 2.85563 23.3855 2.79 21.923C2.71875 20.3424 2.70375 19.868 2.70375 15.8612C2.70375 11.8562 2.71875 11.3837 2.79 9.80303C2.8575 8.34053 3.10125 7.54553 3.3075 7.01678C3.57938 6.3174 3.90562 5.81678 4.43062 5.29178C4.95563 4.76678 5.45437 4.4424 6.15562 4.17053C6.68437 3.96428 7.4775 3.72053 8.94 3.65303C10.3238 3.58928 10.86 3.57053 13.6556 3.56865V3.5724ZM23.0081 6.0624C22.7717 6.0624 22.5377 6.10896 22.3193 6.19942C22.1009 6.28988 21.9025 6.42246 21.7353 6.58961C21.5682 6.75676 21.4356 6.95519 21.3451 7.17357C21.2547 7.39196 21.2081 7.62602 21.2081 7.8624C21.2081 8.09878 21.2547 8.33285 21.3451 8.55123C21.4356 8.76962 21.5682 8.96805 21.7353 9.13519C21.9025 9.30234 22.1009 9.43493 22.3193 9.52538C22.5377 9.61584 22.7717 9.6624 23.0081 9.6624C23.4855 9.6624 23.9434 9.47276 24.2809 9.13519C24.6185 8.79763 24.8081 8.33979 24.8081 7.8624C24.8081 7.38501 24.6185 6.92718 24.2809 6.58961C23.9434 6.25204 23.4855 6.0624 23.0081 6.0624ZM15.0019 8.16615C13.9801 8.15021 12.9654 8.33769 12.0168 8.71767C11.0682 9.09765 10.2047 9.66254 9.47653 10.3794C8.74835 11.0964 8.17006 11.951 7.77533 12.8935C7.3806 13.8361 7.17731 14.8477 7.17731 15.8696C7.17731 16.8915 7.3806 17.9031 7.77533 18.8457C8.17006 19.7882 8.74835 20.6428 9.47653 21.3597C10.2047 22.0766 11.0682 22.6415 12.0168 23.0215C12.9654 23.4015 13.9801 23.589 15.0019 23.573C17.0241 23.5415 18.9529 22.716 20.3718 21.2747C21.7908 19.8335 22.5861 17.8921 22.5861 15.8696C22.5861 13.8471 21.7908 11.9057 20.3718 10.4644C18.9529 9.02319 17.0241 8.1977 15.0019 8.16615ZM15.0019 10.868C16.3281 10.868 17.6001 11.3949 18.5379 12.3327C19.4757 13.2705 20.0025 14.5424 20.0025 15.8687C20.0025 17.1949 19.4757 18.4668 18.5379 19.4046C17.6001 20.3424 16.3281 20.8693 15.0019 20.8693C13.6756 20.8693 12.4037 20.3424 11.4659 19.4046C10.5281 18.4668 10.0013 17.1949 10.0013 15.8687C10.0013 14.5424 10.5281 13.2705 11.4659 12.3327C12.4037 11.3949 13.6756 10.868 15.0019 10.868Z" fill="white"/>
</g>
<defs>
<clipPath id="clip0_89_12780">
<rect width="30" height="30" fill="white" transform="translate(0 0.868652)"/>
</clipPath>
</defs>
</svg>
