<svg width="30" height="31" viewBox="0 0 30 31" fill="none" xmlns="http://www.w3.org/2000/svg">
<g clip-path="url(#clip0_89_12784)">
<path d="M0 3.0174C0 1.83053 0.98625 0.868652 2.20312 0.868652H27.7969C29.0138 0.868652 30 1.83053 30 3.0174V28.7199C30 29.9068 29.0138 30.8687 27.7969 30.8687H2.20312C0.98625 30.8687 0 29.9068 0 28.7199V3.0174ZM9.26812 25.9824V12.4355H4.76625V25.9824H9.26812ZM7.01813 10.5849C8.5875 10.5849 9.56437 9.54615 9.56437 8.2449C9.53625 6.91553 8.58938 5.9049 7.04813 5.9049C5.50688 5.9049 4.5 6.9174 4.5 8.2449C4.5 9.54615 5.47687 10.5849 6.98812 10.5849H7.01813ZM16.2206 25.9824V18.4168C16.2206 18.0118 16.2506 17.6068 16.3706 17.318C16.695 16.5099 17.4356 15.6718 18.6806 15.6718C20.31 15.6718 20.9606 16.913 20.9606 18.7355V25.9824H25.4625V18.2124C25.4625 14.0499 23.2425 12.1149 20.28 12.1149C17.8913 12.1149 16.8206 13.4274 16.2206 14.3518V14.3987H16.1906C16.2006 14.383 16.2106 14.3674 16.2206 14.3518V12.4355H11.7206C11.7769 13.7068 11.7206 25.9824 11.7206 25.9824H16.2206Z" fill="white"/>
</g>
<defs>
<clipPath id="clip0_89_12784">
<rect width="30" height="30" fill="white" transform="translate(0 0.868652)"/>
</clipPath>
</defs>
</svg>
