<svg width="24" height="25" viewBox="0 0 24 25" fill="none" xmlns="http://www.w3.org/2000/svg">
<path fill-rule="evenodd" clip-rule="evenodd" d="M11.8445 21.9563C8.15273 21.9563 5 21.3818 5 19.081C5 16.7802 8.13273 14.6562 11.8445 14.6562C15.5364 14.6562 18.6891 16.7596 18.6891 19.0604C18.6891 21.3602 15.5564 21.9563 11.8445 21.9563Z" stroke="#1843E2" stroke-width="1.8" stroke-linecap="round" stroke-linejoin="round"/>
<path fill-rule="evenodd" clip-rule="evenodd" d="M11.8375 11.4689C14.2602 11.4689 16.2239 9.50531 16.2239 7.08259C16.2239 4.65986 14.2602 2.69531 11.8375 2.69531C9.41477 2.69531 7.45022 4.65986 7.45022 7.08259C7.44204 9.49713 9.39204 11.4608 11.8066 11.4689C11.8175 11.4689 11.8275 11.4689 11.8375 11.4689Z" stroke="#1843E2" stroke-width="1.8" stroke-linecap="round" stroke-linejoin="round"/>
</svg>
