<svg width="28" height="25" viewBox="0 0 28 25" fill="none" xmlns="http://www.w3.org/2000/svg">
<path d="M18.2833 4.68895C19.4775 5.39149 21.0156 4.99159 21.7164 3.79771C22.4191 2.60349 22.0211 1.06603 20.8268 0.363942C19.6306 -0.338254 18.0942 0.0611873 17.3925 1.25507C16.6908 2.44986 17.0879 3.98676 18.2833 4.68895Z" fill="#1843E2"/>
<path d="M22.3824 13.3249C22.245 13.3249 22.1091 13.336 21.9742 13.3456L21.1525 9.26829L21.4202 9.16825C22.0276 8.94122 22.3366 8.26471 22.1091 7.65703C21.8817 7.04884 21.2011 6.74119 20.5984 6.96861L17.6476 8.07213L17.5154 6.998C17.8741 6.24677 17.8309 5.30229 17.244 4.63597C16.0354 3.26415 14.5609 3.92375 14.1013 4.29569L8.01524 9.22422L8.01616 9.22558C7.82717 9.39032 7.66944 9.59485 7.5686 9.84294C7.44384 10.1502 7.42078 10.4731 7.47954 10.7759C6.99537 10.814 6.61091 11.207 6.61091 11.7009C6.61091 12.2182 7.0292 12.637 7.54656 12.6393L7.15953 13.545C6.6687 13.4047 6.15316 13.3249 5.61837 13.3249C2.52078 13.3249 0 15.8447 0 18.9423C0 22.04 2.52078 24.5603 5.61826 24.5603C8.71602 24.5603 11.2356 22.04 11.2356 18.9423C11.2356 16.8794 10.1148 15.0779 8.45358 14.1009L9.07748 12.6403H10.0891L13.5216 14.0332L11.6881 17.0381C11.2156 17.8132 11.4606 18.825 12.2355 19.2978C12.5027 19.4607 12.798 19.5386 13.0897 19.5386C13.6436 19.5386 14.1849 19.258 14.4948 18.7507L16.1654 16.0121L17.2514 16.6675C16.9412 17.3638 16.7651 18.1324 16.7651 18.9423C16.7651 22.0401 19.285 24.5603 22.3824 24.5603C25.4801 24.5603 28 22.0401 28 18.9423C28 15.8447 25.4801 13.3249 22.3824 13.3249ZM5.61826 23.1512C3.29757 23.1512 1.40901 21.263 1.40901 18.9423C1.40901 16.6216 3.29757 14.7338 5.61826 14.7338C5.95671 14.7338 6.28156 14.7849 6.59696 14.8605L5.43103 17.5875C4.76152 17.6797 4.24421 18.2479 4.24421 18.9423C4.24421 19.7009 4.85963 20.3164 5.6182 20.3164C6.1174 20.3164 6.55015 20.0462 6.79056 19.6468H9.75519C9.41776 21.6318 7.69774 23.1512 5.61826 23.1512ZM9.75525 18.2379H6.79061C6.7704 18.2044 6.7503 18.1709 6.72729 18.1392L7.89322 15.4117C8.86452 16.0395 9.5543 17.0542 9.75525 18.2379ZM16.899 14.8096L17.3355 14.0942C17.587 13.6823 17.6448 13.1809 17.4935 12.7228C17.342 12.2646 16.9971 11.8963 16.5504 11.7147L13.5482 10.4965L15.3955 8.99999L15.4983 9.83651C15.5413 10.1934 15.7469 10.5107 16.0541 10.6975C16.2403 10.8103 16.4515 10.8676 16.6632 10.8676C16.8019 10.8676 16.9411 10.8428 17.0742 10.7932L19.8159 9.76823L20.5919 13.6226C19.5517 13.9735 18.6492 14.6197 17.9812 15.4626L16.899 14.8096ZM21.3754 17.5119L19.2115 16.2056C19.66 15.6865 20.2243 15.2764 20.8745 15.025L21.3754 17.5119ZM22.3824 23.1512C20.0617 23.1512 18.1741 21.263 18.1741 18.9423C18.1741 18.3988 18.286 17.8834 18.4741 17.4058L21.0103 18.9369C21.0103 18.9387 21.0094 18.9405 21.0094 18.9423C21.0094 19.7009 21.6248 20.3164 22.3824 20.3164C23.141 20.3164 23.7557 19.7009 23.7557 18.9423C23.7557 18.3457 23.373 17.8429 22.8413 17.6531L22.2561 14.7467C22.2991 14.7453 22.3394 14.7338 22.3825 14.7338C24.7032 14.7338 26.5911 16.6216 26.5911 18.9423C26.591 21.263 24.7032 23.1512 22.3824 23.1512Z" fill="#1843E2"/>
</svg>
