<svg width="18" height="18" viewBox="0 0 18 18" fill="none" xmlns="http://www.w3.org/2000/svg">
<path d="M7.40249 4.25257L4.83749 5.81259L3.66749 3.89259C3.23999 3.18759 3.46499 2.25759 4.16999 1.83009C4.87499 1.40259 5.80499 1.62758 6.23249 2.33258L7.40249 4.25257Z" stroke="#292D32" stroke-linecap="round" stroke-linejoin="round"/>
<path d="M8.86509 6.86994L6.49509 8.30998C5.11509 9.14998 4.69508 10.845 5.36258 12.195L6.90008 15.33C7.39508 16.3425 8.59509 16.6949 9.55509 16.1024L14.3776 13.17C15.3451 12.585 15.5776 11.3625 14.9101 10.455L12.8326 7.64997C11.9326 6.43497 10.2451 6.02994 8.86509 6.86994Z" stroke="#292D32" stroke-linecap="round" stroke-linejoin="round"/>
<path d="M8.06757 3.82337L4.22412 6.16382L5.78442 8.72612L9.62787 6.38567L8.06757 3.82337Z" stroke="#292D32" stroke-linecap="round" stroke-linejoin="round"/>
<path d="M10.7324 12.6074L11.9699 14.6399" stroke="#292D32" stroke-linecap="round" stroke-linejoin="round"/>
<path d="M8.8125 13.7776L10.05 15.8101" stroke="#292D32" stroke-linecap="round" stroke-linejoin="round"/>
<path d="M12.6526 11.4375L13.8901 13.47" stroke="#292D32" stroke-linecap="round" stroke-linejoin="round"/>
</svg>
