<svg width="18" height="15" viewBox="0 0 18 15" fill="none" xmlns="http://www.w3.org/2000/svg">
<path d="M8.98922 14.6653C7.56545 14.6645 6.14624 14.5043 4.7581 14.1878C4.52388 14.1356 4.31466 14.0047 4.16539 13.8168C4.01612 13.6289 3.93584 13.3955 3.93797 13.1556V8.7827C1.28578 8.45307 0.56691 5.80876 0.517972 4.74845C0.507805 4.53148 0.554329 4.31561 0.652963 4.12209C0.751596 3.92857 0.898936 3.76408 1.08047 3.64482C1.98942 3.04065 2.92974 2.48506 3.89747 1.98038C4.34418 1.79283 4.81992 1.68379 5.30372 1.65807C5.38418 1.65361 5.46463 1.66686 5.53941 1.69688L5.71772 1.76776C7.87554 2.3997 10.1718 2.3813 12.3192 1.71488C12.3907 1.68563 12.4672 1.66988 12.5442 1.66932H12.5577C13.063 1.68089 13.5628 1.77592 14.0371 1.95057C14.0613 1.95915 14.0848 1.96949 14.1074 1.98151C15.0603 2.48888 15.9862 3.04463 16.8805 3.64876C17.0609 3.76859 17.207 3.93319 17.3046 4.12645C17.4022 4.31971 17.448 4.535 17.4374 4.75126C17.3632 6.0647 16.5543 8.46376 14.068 8.77988V13.1567C14.0687 13.396 13.9874 13.6282 13.8378 13.815C13.6883 14.0017 13.4793 14.1317 13.2457 14.1833C11.8495 14.5028 10.4219 14.6642 8.98979 14.6653M5.06297 13.1027C7.65708 13.6876 10.349 13.6861 12.9425 13.0982V8.25001C12.9425 8.10082 13.0017 7.95775 13.1072 7.85226C13.2127 7.74677 13.3558 7.68751 13.505 7.68751C16.1138 7.68751 16.3062 4.81145 16.3141 4.68882C16.3139 4.66814 16.3087 4.64781 16.2988 4.62965C16.2888 4.6115 16.2746 4.59608 16.2573 4.58476C15.4041 4.00893 14.5216 3.4776 13.6135 2.99288C13.4136 2.92179 13.2076 2.86907 12.9982 2.83538C12.9757 2.87082 12.9509 2.9057 12.9239 2.93888L9.87516 6.70763C9.77304 6.83387 9.6448 6.9365 9.49926 7.00848C9.35371 7.08046 9.19431 7.12009 9.03201 7.12463C8.8697 7.12917 8.70833 7.09853 8.55899 7.0348C8.40965 6.97107 8.27587 6.87577 8.16685 6.75545L4.74685 2.98107C4.72139 2.95305 4.69736 2.92376 4.67485 2.89332C4.57029 2.92306 4.46739 2.95836 4.3666 2.99907C3.45169 3.48155 2.5618 4.01004 1.70035 4.58251C1.68125 4.59417 1.66568 4.61079 1.65528 4.6306C1.64487 4.65041 1.64004 4.67267 1.64128 4.69501C1.64128 4.72651 1.8511 7.69088 4.49879 7.69088C4.64797 7.69088 4.79104 7.75015 4.89653 7.85564C5.00202 7.96113 5.06129 8.1042 5.06129 8.25338L5.06297 13.1027ZM5.37347 2.83482L8.58366 6.37745C8.63815 6.43758 8.70501 6.48521 8.77964 6.51706C8.85427 6.54892 8.93491 6.56426 9.01603 6.56201C9.09715 6.55977 9.17682 6.54 9.24958 6.50406C9.32233 6.46813 9.38645 6.41687 9.43754 6.35382L12.2191 2.91582C11.9249 2.99545 11.6279 3.06431 11.3287 3.12226L8.99991 6.00001L6.35785 3.08345C6.02651 3.01387 5.69811 2.93093 5.37347 2.83482Z" fill="#282828"/>
</svg>
