<svg width="104" height="18" viewBox="0 0 104 18" fill="none" xmlns="http://www.w3.org/2000/svg">
<path d="M8.56519 16.573C12.5074 16.573 15.7032 13.3772 15.7032 9.43494C15.7032 5.49269 12.5074 2.29688 8.56519 2.29688C4.62294 2.29688 1.42712 5.49269 1.42712 9.43494C1.42712 13.3772 4.62294 16.573 8.56519 16.573Z" stroke="#828282" stroke-width="1.14209" stroke-linecap="round" stroke-linejoin="round"/>
<path d="M11.4204 7.15799C11.0999 6.50486 10.1381 5.36241 8.21436 5.52552C6.29066 5.68898 4.8477 7.48491 5.0083 9.77017C5.16891 12.0558 6.93201 13.3617 8.53486 13.3617C10.4586 13.3617 11.4204 11.7945 11.4204 11.7945" stroke="#828282" stroke-width="1.14209" stroke-linecap="round" stroke-linejoin="round"/>
<path d="M30.1848 14.9355V14.0407L33.5456 10.3617C33.94 9.93081 34.2649 9.55629 34.5201 9.2381C34.7753 8.91661 34.9642 8.615 35.0868 8.33327C35.2128 8.04824 35.2757 7.74994 35.2757 7.43839C35.2757 7.08043 35.1896 6.77054 35.0172 6.5087C34.8482 6.24686 34.6162 6.04468 34.3212 5.90217C34.0262 5.75965 33.6948 5.68839 33.3269 5.68839C32.9358 5.68839 32.5944 5.76959 32.3027 5.932C32.0144 6.09109 31.7907 6.31481 31.6316 6.60316C31.4758 6.89151 31.3979 7.22958 31.3979 7.61736H30.2246C30.2246 7.02077 30.3622 6.4971 30.6373 6.04634C30.9123 5.59558 31.2869 5.24426 31.7608 4.99236C32.2381 4.74047 32.7734 4.61452 33.3667 4.61452C33.9632 4.61452 34.4919 4.74047 34.9526 4.99236C35.4133 5.24426 35.7746 5.58398 36.0364 6.01154C36.2982 6.4391 36.4292 6.91471 36.4292 7.43839C36.4292 7.81291 36.3612 8.17915 36.2253 8.53711C36.0927 8.89175 35.8607 9.28782 35.5293 9.72532C35.2012 10.1595 34.7454 10.6898 34.1621 11.3162L31.8752 13.7623V13.8418H36.6081V14.9355H30.1848ZM41.9824 15.0748C41.2334 15.0748 40.5953 14.8709 40.0684 14.4632C39.5414 14.0523 39.1387 13.4573 38.8603 12.6784C38.5819 11.8962 38.4426 10.9516 38.4426 9.84464C38.4426 8.74426 38.5819 7.80463 38.8603 7.02575C39.142 6.24355 39.5463 5.64696 40.0733 5.23597C40.6036 4.82167 41.24 4.61452 41.9824 4.61452C42.7248 4.61452 43.3596 4.82167 43.8865 5.23597C44.4168 5.64696 44.8212 6.24355 45.0996 7.02575C45.3813 7.80463 45.5222 8.74426 45.5222 9.84464C45.5222 10.9516 45.383 11.8962 45.1046 12.6784C44.8262 13.4573 44.4235 14.0523 43.8965 14.4632C43.3695 14.8709 42.7315 15.0748 41.9824 15.0748ZM41.9824 13.981C42.7248 13.981 43.3016 13.623 43.7125 12.9071C44.1235 12.1912 44.329 11.1704 44.329 9.84464C44.329 8.96301 44.2346 8.2123 44.0456 7.59251C43.86 6.97271 43.5916 6.50041 43.2402 6.1756C42.8922 5.85079 42.473 5.68839 41.9824 5.68839C41.2466 5.68839 40.6716 6.05131 40.2573 6.77717C39.843 7.4997 39.6358 8.52219 39.6358 9.84464C39.6358 10.7263 39.7286 11.4753 39.9142 12.0918C40.0998 12.7083 40.3667 13.1773 40.7147 13.4988C41.066 13.8203 41.4886 13.981 41.9824 13.981ZM47.4114 14.9355V14.0407L50.7722 10.3617C51.1666 9.93081 51.4914 9.55629 51.7466 9.2381C52.0018 8.91661 52.1908 8.615 52.3134 8.33327C52.4393 8.04824 52.5023 7.74994 52.5023 7.43839C52.5023 7.08043 52.4161 6.77054 52.2438 6.5087C52.0748 6.24686 51.8427 6.04468 51.5478 5.90217C51.2528 5.75965 50.9213 5.68839 50.5534 5.68839C50.1623 5.68839 49.821 5.76959 49.5293 5.932C49.2409 6.09109 49.0172 6.31481 48.8581 6.60316C48.7024 6.89151 48.6245 7.22958 48.6245 7.61736H47.4512C47.4512 7.02077 47.5887 6.4971 47.8638 6.04634C48.1389 5.59558 48.5134 5.24426 48.9874 4.99236C49.4647 4.74047 49.9999 4.61452 50.5932 4.61452C51.1898 4.61452 51.7185 4.74047 52.1792 4.99236C52.6399 5.24426 53.0011 5.58398 53.263 6.01154C53.5248 6.4391 53.6557 6.91471 53.6557 7.43839C53.6557 7.81291 53.5878 8.17915 53.4519 8.53711C53.3193 8.89175 53.0873 9.28782 52.7559 9.72532C52.4277 10.1595 51.972 10.6898 51.3887 11.3162L49.1017 13.7623V13.8418H53.8347V14.9355H47.4114ZM55.4306 12.8475V11.8333L59.905 4.75373H60.6408V6.32475H60.1436L56.763 11.6742V11.7537H62.7885V12.8475H55.4306ZM60.2232 14.9355V12.5392V12.0669V4.75373H61.3965V14.9355H60.2232ZM68.7681 14.9355V4.75373H74.913V5.84748H70.0011V9.28782H74.5948V10.3816H70.0011V13.8418H74.9925V14.9355H68.7681ZM79.2234 15.1145C78.7395 15.1145 78.3003 15.0234 77.9059 14.8411C77.5115 14.6555 77.1983 14.3887 76.9663 14.0407C76.7343 13.6893 76.6183 13.2651 76.6183 12.7679C76.6183 12.3304 76.7044 11.9758 76.8768 11.704C77.0491 11.4289 77.2795 11.2135 77.5678 11.0577C77.8562 10.9019 78.1744 10.7859 78.5224 10.7097C78.8737 10.6301 79.2267 10.5672 79.5813 10.5208C80.0453 10.4611 80.4215 10.4164 80.7099 10.3865C81.0015 10.3534 81.2137 10.2987 81.3462 10.2225C81.4821 10.1462 81.5501 10.0137 81.5501 9.82475V9.78498C81.5501 9.29445 81.4158 8.91329 81.1474 8.64151C80.8822 8.36973 80.4795 8.23384 79.9393 8.23384C79.3791 8.23384 78.94 8.35647 78.6218 8.60174C78.3036 8.84701 78.0799 9.10884 77.9506 9.38725L76.837 8.98952C77.0359 8.52551 77.301 8.16424 77.6325 7.90572C77.9672 7.64388 78.3318 7.46159 78.7262 7.35884C79.1239 7.25278 79.515 7.19975 79.8995 7.19975C80.1448 7.19975 80.4265 7.22958 80.7447 7.28924C81.0662 7.34558 81.3761 7.46325 81.6744 7.64222C81.976 7.8212 82.2262 8.09132 82.4251 8.45259C82.6239 8.81386 82.7234 9.29776 82.7234 9.9043V14.9355H81.5501V13.9015H81.4904C81.4109 14.0672 81.2783 14.2445 81.0927 14.4334C80.9071 14.6223 80.6602 14.7831 80.3519 14.9157C80.0437 15.0482 79.6675 15.1145 79.2234 15.1145ZM79.4023 14.0605C79.8664 14.0605 80.2575 13.9694 80.5756 13.7871C80.8971 13.6048 81.1391 13.3695 81.3015 13.0811C81.4672 12.7928 81.5501 12.4895 81.5501 12.1713V11.0975C81.5004 11.1571 81.391 11.2118 81.2219 11.2615C81.0562 11.3079 80.864 11.3494 80.6452 11.3858C80.4298 11.419 80.2193 11.4488 80.0138 11.4753C79.8117 11.4985 79.6476 11.5184 79.5217 11.535C79.2167 11.5748 78.9317 11.6394 78.6665 11.7289C78.4047 11.815 78.1926 11.946 78.0302 12.1216C77.8711 12.294 77.7915 12.5293 77.7915 12.8276C77.7915 13.2353 77.9424 13.5435 78.244 13.7523C78.5489 13.9578 78.935 14.0605 79.4023 14.0605ZM84.6461 14.9355V14.0407L88.9814 8.47248V8.39293H84.7853V7.29918H90.4927V8.23384L86.2768 13.7623V13.8418H90.6319V14.9355H84.6461ZM92.2203 14.9355V14.0407L96.5556 8.47248V8.39293H92.3596V7.29918H98.0669V8.23384L93.851 13.7623V13.8418H98.2061V14.9355H92.2203ZM100.013 14.9355V7.29918H101.187V14.9355H100.013ZM100.61 6.02646C100.381 6.02646 100.184 5.94857 100.018 5.79279C99.8559 5.63701 99.7747 5.44975 99.7747 5.231C99.7747 5.01225 99.8559 4.82499 100.018 4.66921C100.184 4.51344 100.381 4.43555 100.61 4.43555C100.839 4.43555 101.034 4.51344 101.197 4.66921C101.362 4.82499 101.445 5.01225 101.445 5.231C101.445 5.44975 101.362 5.63701 101.197 5.79279C101.034 5.94857 100.839 6.02646 100.61 6.02646Z" fill="#828282"/>
</svg>
