<svg width="30" height="30" viewBox="0 0 30 30" fill="none" xmlns="http://www.w3.org/2000/svg">
<rect x="0.416667" y="0.416667" width="29.1667" height="29.1667" rx="14.5833" stroke="#E0E0E0" stroke-width="0.833333"/>
<path d="M8.73163 9.2693C8.66129 9.19871 8.62535 9.11707 8.625 8.99947V8.25C8.625 8.13215 8.6608 8.05129 8.7307 7.98163C8.80128 7.91129 8.88291 7.87536 9.0005 7.875H14.25C14.3679 7.875 14.4492 7.91083 14.5196 7.98117C14.5899 8.05146 14.6253 8.13231 14.625 8.24912V8.25V9C14.625 9.11786 14.5892 9.19925 14.5188 9.26958C14.4485 9.33988 14.3677 9.37528 14.2509 9.375H14.25H14.1375H13.5658L13.7935 9.89936L14.895 12.436C14.758 12.5146 14.6251 12.5956 14.4963 12.6789C14.4117 12.7337 14.3289 12.7911 14.248 12.8513L12.8702 9.60354L12.7733 9.375H12.525H10.725H10.4771L10.38 9.60305L8.65499 13.6531L8.625 13.7235V13.8V19.5V19.875H9H11.8998C11.9544 20.059 12.0191 20.2412 12.0937 20.4217C12.1221 20.4905 12.152 20.5582 12.1834 20.625H9C8.68765 20.625 8.42983 20.5183 8.20617 20.2946C7.98253 20.071 7.87543 19.8128 7.875 19.4998V13.8C7.875 13.7239 7.88221 13.6473 7.89691 13.57C7.91127 13.4944 7.9324 13.4176 7.96078 13.3394L9.4564 9.89952L9.68445 9.375H9.1125H9C8.88215 9.375 8.80129 9.3392 8.73163 9.2693ZM17.625 12.3337C17.3622 12.2721 17.1344 12.1416 16.9339 11.9411C16.6436 11.6508 16.5 11.3032 16.5 10.875C16.5 10.4468 16.6436 10.0992 16.9339 9.80891C17.1344 9.60843 17.3622 9.47791 17.625 9.41633V12.3337ZM21.3337 12.375H18.4163C18.4779 12.1122 18.6084 11.8844 18.8089 11.6839C19.0992 11.3936 19.4468 11.25 19.875 11.25C20.3032 11.25 20.6508 11.3936 20.9411 11.6839C21.1416 11.8844 21.2721 12.1122 21.3337 12.375ZM18 22.125C16.8483 22.125 15.8815 21.7262 15.0777 20.9223C14.2738 20.1185 13.875 19.1517 13.875 18C13.875 16.8483 14.2738 15.8815 15.0777 15.0777C15.8815 14.2738 16.8483 13.875 18 13.875C19.1517 13.875 20.1185 14.2738 20.9223 15.0777C21.7262 15.8815 22.125 16.8483 22.125 18C22.125 19.1517 21.7262 20.1185 20.9223 20.9223C20.1185 21.7262 19.1517 22.125 18 22.125ZM18 21.375C18.9252 21.375 19.7267 21.0412 20.3839 20.3839C21.0412 19.7267 21.375 18.9252 21.375 18C21.375 17.0748 21.0412 16.2733 20.3839 15.6161C19.7267 14.9588 18.9252 14.625 18 14.625C17.0748 14.625 16.2733 14.9588 15.6161 15.6161C14.9588 16.2733 14.625 17.0748 14.625 18C14.625 18.9252 14.9588 19.7267 15.6161 20.3839C16.2733 21.0412 17.0748 21.375 18 21.375Z" stroke="#1843E2" stroke-width="0.75"/>
</svg>
