<svg width="18" height="18" viewBox="0 0 18 18" fill="none" xmlns="http://www.w3.org/2000/svg">
<path d="M7.17715 9.34497L4.88965 11.6325" stroke="#282828" stroke-width="0.75" stroke-miterlimit="10" stroke-linecap="round" stroke-linejoin="round"/>
<path d="M4.91235 9.36768L7.19985 11.6552" stroke="#292D32" stroke-width="1.125" stroke-miterlimit="10" stroke-linecap="round" stroke-linejoin="round"/>
<path d="M10.1477 10.5H10.1552" stroke="#292D32" stroke-width="1.5" stroke-miterlimit="10" stroke-linecap="round" stroke-linejoin="round"/>
<path d="M13.1023 10.5H13.1098" stroke="#292D32" stroke-width="1.5" stroke-miterlimit="10" stroke-linecap="round" stroke-linejoin="round"/>
<path d="M11.625 11.985V11.97" stroke="#292D32" stroke-width="1.5" stroke-miterlimit="10" stroke-linecap="round" stroke-linejoin="round"/>
<path d="M11.625 9.02989V9.01489" stroke="#292D32" stroke-width="1.5" stroke-miterlimit="10" stroke-linecap="round" stroke-linejoin="round"/>
<path d="M6.75 16.5H11.25C15 16.5 16.5 15 16.5 11.25V9.75C16.5 6 15 4.5 11.25 4.5H6.75C3 4.5 1.5 6 1.5 9.75V11.25C1.5 15 3 16.5 6.75 16.5Z" stroke="#292D32" stroke-width="1.125" stroke-linecap="round" stroke-linejoin="round"/>
<path d="M9.75785 1.5L9.75035 2.2575C9.74285 2.67 9.41285 3 9.00035 3H8.97785C8.56535 3 8.23535 3.3375 8.23535 3.75C8.23535 4.1625 8.57285 4.5 8.98535 4.5H9.73535" stroke="#292D32" stroke-width="1.125" stroke-linecap="round" stroke-linejoin="round"/>
</svg>
