<svg width="18" height="18" viewBox="0 0 18 18" fill="none" xmlns="http://www.w3.org/2000/svg">
<rect x="0.25" y="0.25" width="17.5" height="17.5" rx="8.75" fill="#FFB164" fill-opacity="0.2"/>
<rect x="0.25" y="0.25" width="17.5" height="17.5" rx="8.75" stroke="#5075FF" stroke-width="0.5"/>
<path d="M13.5006 8.58467V8.99867C13.5 9.96906 13.1858 10.9133 12.6048 11.6905C12.0238 12.4677 11.2071 13.0363 10.2765 13.3114C9.34592 13.5866 8.35135 13.5535 7.44109 13.2172C6.53084 12.8809 5.75367 12.2594 5.22551 11.4453C4.69735 10.6313 4.44649 9.6683 4.51033 8.70001C4.57418 7.73172 4.94932 6.81002 5.57981 6.07235C6.21029 5.33469 7.06233 4.82059 8.00886 4.60674C8.9554 4.39288 9.9457 4.49072 10.8321 4.88567M13.5006 5.39867L9.00058 9.90317L7.65058 8.55317" stroke="#101828" stroke-width="0.675" stroke-linecap="round" stroke-linejoin="round"/>
</svg>
