<svg width="18" height="18" viewBox="0 0 18 18" fill="none" xmlns="http://www.w3.org/2000/svg">
<g id="vuesax/linear/menu">
<g id="menu">
<g id="Group">
<path id="Vector" d="M13.1551 6.23248C14.174 6.23248 15.0001 5.40645 15.0001 4.38748C15.0001 3.36851 14.174 2.54248 13.1551 2.54248C12.1361 2.54248 11.3101 3.36851 11.3101 4.38748C11.3101 5.40645 12.1361 6.23248 13.1551 6.23248Z" stroke="#282828" stroke-width="0.75" stroke-miterlimit="10" stroke-linecap="round" stroke-linejoin="round"/>
<path id="Vector_2" d="M4.845 6.23248C5.86397 6.23248 6.69 5.40645 6.69 4.38748C6.69 3.36851 5.86397 2.54248 4.845 2.54248C3.82604 2.54248 3 3.36851 3 4.38748C3 5.40645 3.82604 6.23248 4.845 6.23248Z" fill="#282828" stroke="#292D32" stroke-width="1.125" stroke-miterlimit="10" stroke-linecap="round" stroke-linejoin="round"/>
<path id="Vector_3" d="M13.1551 15.4573C14.174 15.4573 15.0001 14.6313 15.0001 13.6123C15.0001 12.5934 14.174 11.7673 13.1551 11.7673C12.1361 11.7673 11.3101 12.5934 11.3101 13.6123C11.3101 14.6313 12.1361 15.4573 13.1551 15.4573Z" fill="#282828" stroke="#292D32" stroke-width="1.125" stroke-miterlimit="10" stroke-linecap="round" stroke-linejoin="round"/>
<path id="Vector_4" d="M4.845 15.4573C5.86397 15.4573 6.69 14.6313 6.69 13.6123C6.69 12.5934 5.86397 11.7673 4.845 11.7673C3.82604 11.7673 3 12.5934 3 13.6123C3 14.6313 3.82604 15.4573 4.845 15.4573Z" fill="#282828" stroke="#292D32" stroke-width="1.125" stroke-miterlimit="10" stroke-linecap="round" stroke-linejoin="round"/>
</g>
</g>
</g>
</svg>
