<svg width="24" height="24" viewBox="0 0 24 24" fill="none" xmlns="http://www.w3.org/2000/svg">
<path d="M11.02 19.5H7.50001C6.88001 19.5 6.33001 19.48 5.84001 19.41C3.21001 19.12 2.50001 17.88 2.50001 14.5V9.5C2.50001 6.12 3.21001 4.88 5.84001 4.59C6.33001 4.52 6.88001 4.5 7.50001 4.5H10.96" stroke="#333333" stroke-width="1.8" stroke-linecap="round" stroke-linejoin="round"/>
<path d="M15.02 4.5H16.5C17.12 4.5 17.67 4.52 18.16 4.59C20.79 4.88 21.5 6.12 21.5 9.5V14.5C21.5 17.88 20.79 19.12 18.16 19.41C17.67 19.48 17.12 19.5 16.5 19.5H15.02" stroke="#333333" stroke-width="1.8" stroke-linecap="round" stroke-linejoin="round"/>
<path d="M15 2V22" stroke="#333333" stroke-width="1.8" stroke-linecap="round" stroke-linejoin="round"/>
<path d="M11.0945 12H11.1035" stroke="#333333" stroke-width="2.4" stroke-linecap="round" stroke-linejoin="round"/>
<path d="M7.09447 12H7.10345" stroke="#333333" stroke-width="2.4" stroke-linecap="round" stroke-linejoin="round"/>
</svg>
