<svg width="16" height="16" viewBox="0 0 16 16" fill="none" xmlns="http://www.w3.org/2000/svg">
<g clip-path="url(#clip0_1473_66188)">
<path d="M10.0333 3.33464C10.6845 3.46168 11.2829 3.78014 11.752 4.24926C12.2212 4.71838 12.5396 5.31681 12.6667 5.96797M10.0333 0.667969C11.3862 0.81826 12.6477 1.42409 13.6108 2.38597C14.5739 3.34786 15.1813 4.60864 15.3333 5.9613M14.6667 11.2813V13.2813C14.6674 13.467 14.6294 13.6507 14.555 13.8209C14.4806 13.991 14.3715 14.1437 14.2347 14.2692C14.0979 14.3947 13.9364 14.4903 13.7605 14.5498C13.5846 14.6093 13.3982 14.6313 13.2133 14.6146C11.1619 14.3917 9.19132 13.6907 7.45999 12.568C5.84921 11.5444 4.48355 10.1788 3.45999 8.56797C2.33331 6.82877 1.63215 4.84863 1.41332 2.78797C1.39666 2.60361 1.41857 2.41781 1.47766 2.24239C1.53674 2.06696 1.6317 1.90576 1.7565 1.76905C1.8813 1.63234 2.03319 1.52311 2.20252 1.44832C2.37184 1.37353 2.55488 1.33481 2.73999 1.33464H4.73999C5.06353 1.33145 5.37719 1.44602 5.6225 1.65699C5.86781 1.86796 6.02804 2.16093 6.07332 2.4813C6.15774 3.12135 6.31429 3.74979 6.53999 4.35464C6.62969 4.59325 6.6491 4.85258 6.59593 5.10189C6.54276 5.3512 6.41923 5.58004 6.23999 5.7613L5.39332 6.60797C6.34236 8.277 7.72429 9.65893 9.39332 10.608L10.24 9.7613C10.4213 9.58206 10.6501 9.45854 10.8994 9.40536C11.1487 9.35219 11.408 9.37161 11.6467 9.4613C12.2515 9.687 12.8799 9.84355 13.52 9.92797C13.8438 9.97366 14.1396 10.1368 14.351 10.3863C14.5624 10.6358 14.6748 10.9544 14.6667 11.2813Z" stroke="#4F4F4F" stroke-width="1.33333" stroke-linecap="round" stroke-linejoin="round"/>
</g>
<defs>
<clipPath id="clip0_1473_66188">
<rect width="16" height="16" fill="white"/>
</clipPath>
</defs>
</svg>
