<svg width="28" height="29" viewBox="0 0 28 29" fill="none" xmlns="http://www.w3.org/2000/svg">
<path d="M18.2833 6.68895C19.4775 7.39149 21.0156 6.99159 21.7164 5.79771C22.4191 4.60349 22.0211 3.06603 20.8268 2.36394C19.6306 1.66175 18.0942 2.06119 17.3925 3.25507C16.6908 4.44986 17.0879 5.98676 18.2833 6.68895Z" fill="#4F4F4F"/>
<path d="M22.3824 15.3249C22.245 15.3249 22.1091 15.336 21.9742 15.3456L21.1525 11.2683L21.4202 11.1682C22.0276 10.9412 22.3366 10.2647 22.1091 9.65703C21.8817 9.04884 21.2011 8.74119 20.5984 8.96861L17.6476 10.0721L17.5154 8.998C17.8741 8.24677 17.8309 7.30229 17.244 6.63597C16.0354 5.26415 14.5609 5.92375 14.1013 6.29569L8.01524 11.2242L8.01616 11.2256C7.82717 11.3903 7.66944 11.5948 7.5686 11.8429C7.44384 12.1502 7.42078 12.4731 7.47954 12.7759C6.99537 12.814 6.61091 13.207 6.61091 13.7009C6.61091 14.2182 7.0292 14.637 7.54656 14.6393L7.15953 15.545C6.6687 15.4047 6.15316 15.3249 5.61837 15.3249C2.52078 15.3249 0 17.8447 0 20.9423C0 24.04 2.52078 26.5603 5.61826 26.5603C8.71602 26.5603 11.2356 24.04 11.2356 20.9423C11.2356 18.8794 10.1148 17.0779 8.45358 16.1009L9.07748 14.6403H10.0891L13.5216 16.0332L11.6881 19.0381C11.2156 19.8132 11.4606 20.825 12.2355 21.2978C12.5027 21.4607 12.798 21.5386 13.0897 21.5386C13.6436 21.5386 14.1849 21.258 14.4948 20.7507L16.1654 18.0121L17.2514 18.6675C16.9412 19.3638 16.7651 20.1324 16.7651 20.9423C16.7651 24.0401 19.285 26.5603 22.3824 26.5603C25.4801 26.5603 28 24.0401 28 20.9423C28 17.8447 25.4801 15.3249 22.3824 15.3249ZM5.61826 25.1512C3.29757 25.1512 1.40901 23.263 1.40901 20.9423C1.40901 18.6216 3.29757 16.7338 5.61826 16.7338C5.95671 16.7338 6.28156 16.7849 6.59696 16.8605L5.43103 19.5875C4.76152 19.6797 4.24421 20.2479 4.24421 20.9423C4.24421 21.7009 4.85963 22.3164 5.6182 22.3164C6.1174 22.3164 6.55015 22.0462 6.79056 21.6468H9.75519C9.41776 23.6318 7.69774 25.1512 5.61826 25.1512ZM9.75525 20.2379H6.79061C6.7704 20.2044 6.7503 20.1709 6.72729 20.1392L7.89322 17.4117C8.86452 18.0395 9.5543 19.0542 9.75525 20.2379ZM16.899 16.8096L17.3355 16.0942C17.587 15.6823 17.6448 15.1809 17.4935 14.7228C17.342 14.2646 16.9971 13.8963 16.5504 13.7147L13.5482 12.4965L15.3955 11L15.4983 11.8365C15.5413 12.1934 15.7469 12.5107 16.0541 12.6975C16.2403 12.8103 16.4515 12.8676 16.6632 12.8676C16.8019 12.8676 16.9411 12.8428 17.0742 12.7932L19.8159 11.7682L20.5919 15.6226C19.5517 15.9735 18.6492 16.6197 17.9812 17.4626L16.899 16.8096ZM21.3754 19.5119L19.2115 18.2056C19.66 17.6865 20.2243 17.2764 20.8745 17.025L21.3754 19.5119ZM22.3824 25.1512C20.0617 25.1512 18.1741 23.263 18.1741 20.9423C18.1741 20.3988 18.286 19.8834 18.4741 19.4058L21.0103 20.9369C21.0103 20.9387 21.0094 20.9405 21.0094 20.9423C21.0094 21.7009 21.6248 22.3164 22.3824 22.3164C23.141 22.3164 23.7557 21.7009 23.7557 20.9423C23.7557 20.3457 23.373 19.8429 22.8413 19.6531L22.2561 16.7467C22.2991 16.7453 22.3394 16.7338 22.3825 16.7338C24.7032 16.7338 26.5911 18.6216 26.5911 20.9423C26.591 23.263 24.7032 25.1512 22.3824 25.1512Z" fill="#4F4F4F"/>
</svg>
