<svg width="24" height="25" viewBox="0 0 24 25" fill="none" xmlns="http://www.w3.org/2000/svg">
<path d="M6 2.14648L3 6.14648V20.1465C3 20.6769 3.21071 21.1856 3.58579 21.5607C3.96086 21.9358 4.46957 22.1465 5 22.1465H19C19.5304 22.1465 20.0391 21.9358 20.4142 21.5607C20.7893 21.1856 21 20.6769 21 20.1465V6.14648L18 2.14648H6Z" stroke="white" stroke-width="2" stroke-linecap="round" stroke-linejoin="round"/>
<path d="M3 6.14648H21" stroke="white" stroke-width="2" stroke-linecap="round" stroke-linejoin="round"/>
<path d="M16 10.1465C16 11.2074 15.5786 12.2248 14.8284 12.9749C14.0783 13.7251 13.0609 14.1465 12 14.1465C10.9391 14.1465 9.92172 13.7251 9.17157 12.9749C8.42143 12.2248 8 11.2074 8 10.1465" stroke="white" stroke-width="2" stroke-linecap="round" stroke-linejoin="round"/>
</svg>
