<svg width="16" height="15" viewBox="0 0 16 15" fill="none" xmlns="http://www.w3.org/2000/svg">
<path d="M7.0856 1.56553C7.43692 0.771932 8.56308 0.771931 8.9144 1.56553L10.2409 4.56191C10.3861 4.88998 10.696 5.1151 11.0529 5.15184L14.3125 5.48748C15.1758 5.57637 15.5238 6.64742 14.8776 7.22678L12.4378 9.41428C12.1707 9.65378 12.0523 10.018 12.1277 10.3688L12.8158 13.5726C12.998 14.4212 12.0869 15.0831 11.3362 14.6476L8.50183 13.0031C8.1915 12.8231 7.8085 12.8231 7.49817 13.0031L4.66379 14.6476C3.9131 15.0831 3.00201 14.4212 3.18425 13.5726L3.87233 10.3688C3.94766 10.018 3.82931 9.65378 3.56218 9.41428L1.12236 7.22678C0.476169 6.64742 0.824172 5.57637 1.68749 5.48748L4.94713 5.15184C5.30402 5.1151 5.61387 4.88998 5.75911 4.56191L7.0856 1.56553Z" fill="#FF8F21"/>
</svg>
