<svg width="21" height="20" viewBox="0 0 21 20" fill="none" xmlns="http://www.w3.org/2000/svg">
<path d="M3 4.99984H4.66667M4.66667 4.99984H18M4.66667 4.99984V16.6665C4.66667 17.1085 4.84226 17.5325 5.15482 17.845C5.46738 18.1576 5.89131 18.3332 6.33333 18.3332H14.6667C15.1087 18.3332 15.5326 18.1576 15.8452 17.845C16.1577 17.5325 16.3333 17.1085 16.3333 16.6665V4.99984H4.66667ZM7.16667 4.99984V3.33317C7.16667 2.89114 7.34226 2.46722 7.65482 2.15466C7.96738 1.8421 8.39131 1.6665 8.83333 1.6665H12.1667C12.6087 1.6665 13.0326 1.8421 13.3452 2.15466C13.6577 2.46722 13.8333 2.89114 13.8333 3.33317V4.99984M8.83333 9.1665V14.1665M12.1667 9.1665V14.1665" stroke="#FF7F00" stroke-width="1.67" stroke-linecap="round" stroke-linejoin="round"/>
</svg>
