<svg width="20" height="20" viewBox="0 0 20 20" fill="none" xmlns="http://www.w3.org/2000/svg">
<path d="M10.3996 7.2002H5.59961" stroke="#828282" stroke-width="1.2" stroke-linecap="round" stroke-linejoin="round"/>
<path d="M17.6004 8.77593V10.424C17.6004 10.864 17.2484 11.2239 16.8004 11.2399H15.2323C14.3683 11.2399 13.5764 10.6079 13.5044 9.74395C13.4564 9.23995 13.6484 8.76794 13.9844 8.43994C14.2804 8.13594 14.6884 7.95996 15.1364 7.95996H16.8004C17.2484 7.97596 17.6004 8.33593 17.6004 8.77593Z" stroke="#828282" stroke-width="1.2" stroke-linecap="round" stroke-linejoin="round"/>
<path d="M13.9836 8.4398C13.6476 8.7678 13.4556 9.2398 13.5036 9.7438C13.5756 10.6078 14.3676 11.2398 15.2316 11.2398H16.7996V12.3998C16.7996 14.7998 15.1996 16.3998 12.7996 16.3998H5.59961C3.19961 16.3998 1.59961 14.7998 1.59961 12.3998V6.7998C1.59961 4.6238 2.91161 3.1038 4.95161 2.8478C5.15961 2.8158 5.37561 2.7998 5.59961 2.7998H12.7996C13.0076 2.7998 13.2076 2.80779 13.3996 2.83979C15.4636 3.07979 16.7996 4.6078 16.7996 6.7998V7.95981H15.1356C14.6876 7.95981 14.2796 8.1358 13.9836 8.4398Z" stroke="#828282" stroke-width="1.2" stroke-linecap="round" stroke-linejoin="round"/>
</svg>
