<svg width="21" height="21" viewBox="0 0 21 21" fill="none" xmlns="http://www.w3.org/2000/svg">
<path d="M10.1221 2.42383H8.4554C4.28874 2.42383 2.62207 4.09049 2.62207 8.25716V13.2572C2.62207 17.4238 4.28874 19.0905 8.4554 19.0905H13.4554C17.6221 19.0905 19.2887 17.4238 19.2887 13.2572V11.5905" stroke="white" stroke-width="1.5" stroke-linecap="round" stroke-linejoin="round"/>
<path d="M14.3216 3.2742L7.75498 9.84087C7.50498 10.0909 7.25498 10.5825 7.20498 10.9409L6.84664 13.4492C6.71331 14.3575 7.35498 14.9909 8.26331 14.8659L10.7716 14.5075C11.1216 14.4575 11.6133 14.2075 11.8716 13.9575L18.4383 7.39087C19.5716 6.25753 20.105 4.94087 18.4383 3.2742C16.7716 1.60753 15.455 2.14087 14.3216 3.2742Z" stroke="white" stroke-width="1.5" stroke-miterlimit="10" stroke-linecap="round" stroke-linejoin="round"/>
<path d="M13.3799 4.2168C13.9382 6.20846 15.4966 7.7668 17.4966 8.33346" stroke="white" stroke-width="1.5" stroke-miterlimit="10" stroke-linecap="round" stroke-linejoin="round"/>
</svg>
