<svg width="17" height="20" viewBox="0 0 17 20" fill="none" xmlns="http://www.w3.org/2000/svg">
<path d="M1 4.99984H2.66667M2.66667 4.99984H16M2.66667 4.99984V16.6665C2.66667 17.1085 2.84226 17.5325 3.15482 17.845C3.46738 18.1576 3.89131 18.3332 4.33333 18.3332H12.6667C13.1087 18.3332 13.5326 18.1576 13.8452 17.845C14.1577 17.5325 14.3333 17.1085 14.3333 16.6665V4.99984H2.66667ZM5.16667 4.99984V3.33317C5.16667 2.89114 5.34226 2.46722 5.65482 2.15466C5.96738 1.8421 6.39131 1.6665 6.83333 1.6665H10.1667C10.6087 1.6665 11.0326 1.8421 11.3452 2.15466C11.6577 2.46722 11.8333 2.89114 11.8333 3.33317V4.99984M6.83333 9.1665V14.1665M10.1667 9.1665V14.1665" stroke="#F9F9F9" stroke-width="1.67" stroke-linecap="round" stroke-linejoin="round"/>
</svg>
