<svg width="24" height="25" viewBox="0 0 24 25" fill="none" xmlns="http://www.w3.org/2000/svg">
<rect y="0.757812" width="24" height="24" rx="2.4" fill="#FF7F00"/>
<path d="M11.4525 6.79791C11.6633 6.32175 12.339 6.32175 12.5498 6.79791L14.0059 10.0871C14.0931 10.2839 14.279 10.419 14.4931 10.441L18.0712 10.8094C18.5892 10.8628 18.798 11.5054 18.4103 11.853L15.7321 14.2542C15.5718 14.398 15.5008 14.6165 15.546 14.827L16.3013 18.3438C16.4106 18.8529 15.864 19.2501 15.4136 18.9888L12.3023 17.1837C12.1161 17.0757 11.8863 17.0757 11.7001 17.1837L8.58876 18.9888C8.13835 19.2501 7.5917 18.8529 7.70104 18.3438L8.45634 14.827C8.50154 14.6165 8.43053 14.398 8.27025 14.2543L5.59205 11.853C5.20434 11.5054 5.41314 10.8628 5.93113 10.8094L9.50925 10.441C9.72338 10.419 9.90929 10.2839 9.99643 10.0871L11.4525 6.79791Z" fill="white"/>
</svg>
